<?xml version="1.0" encoding="UTF-8" standalone="no"?>
<!-- Created with Inkscape (http://www.inkscape.org/) -->

<svg
   xmlns:dc="http://purl.org/dc/elements/1.1/"
   xmlns:cc="http://creativecommons.org/ns#"
   xmlns:rdf="http://www.w3.org/1999/02/22-rdf-syntax-ns#"
   xmlns:svg="http://www.w3.org/2000/svg"
   xmlns="http://www.w3.org/2000/svg"
   xmlns:sodipodi="http://sodipodi.sourceforge.net/DTD/sodipodi-0.dtd"
   xmlns:inkscape="http://www.inkscape.org/namespaces/inkscape"
   width="2.6199999in"
   height="1.75in"
   viewBox="0 0 66.547993 44.450002"
   version="1.1"
   id="svg49"
   inkscape:version="0.92.1 r15371"
   sodipodi:docname="logo.svg"
   inkscape:export-filename="C:\Users\Sebastian\Pictures\FusionLogo.png"
   inkscape:export-xdpi="471.58774"
   inkscape:export-ydpi="471.58774">
  <defs
     id="defs43" />
  <sodipodi:namedview
     id="base"
     pagecolor="#ffffff"
     bordercolor="#666666"
     borderopacity="1.0"
     inkscape:pageopacity="0.0"
     inkscape:pageshadow="2"
     inkscape:zoom="1.979899"
     inkscape:cx="84.154212"
     inkscape:cy="94.376523"
     inkscape:document-units="mm"
     inkscape:current-layer="layer1"
     showgrid="false"
     units="in"
     inkscape:window-width="1366"
     inkscape:window-height="705"
     inkscape:window-x="-8"
     inkscape:window-y="-8"
     inkscape:window-maximized="1"
     inkscape:pagecheckerboard="true" />
  <metadata
     id="metadata46">
    <rdf:RDF>
      <cc:Work
         rdf:about="">
        <dc:format>image/svg+xml</dc:format>
        <dc:type
           rdf:resource="http://purl.org/dc/dcmitype/StillImage" />
        <dc:title></dc:title>
      </cc:Work>
    </rdf:RDF>
  </metadata>
  <g
     inkscape:label="Layer 1"
     inkscape:groupmode="layer"
     id="layer1"
     transform="translate(0,-252.55)">
    <g
       id="surface8084"
       transform="matrix(0.09508007,0,0,0.09586327,-0.52933396,253.7788)"
       inkscape:export-filename="C:\Users\Sebastian\Pictures\FusionLogo.png"
       inkscape:export-xdpi="471.58774"
       inkscape:export-ydpi="471.58774">
      <path
         style="fill:#5e5c5e;fill-opacity:1;fill-rule:nonzero;stroke:none"
         d="m 530.67187,183.16016 c -30.72265,0 -55.625,24.53906 -55.625,54.80468 0,30.26563 24.90235,54.80469 55.625,54.80469 30.71875,0 55.625,-24.53906 55.625,-54.80469 0,-30.26562 -24.90625,-54.80468 -55.625,-54.80468 m 39.8125,54.80468 c 0,23.29688 -17.82421,42.1875 -39.8125,42.1875 -21.98828,0 -39.8164,-18.89062 -39.8164,-42.1875 0,-23.30078 17.82812,-42.1875 39.8164,-42.1875 21.98829,0 39.8125,18.88672 39.8125,42.1875"
         id="path10"
         inkscape:connector-curvature="0" />
      <path
         style="fill:#5e5c5e;fill-opacity:1;fill-rule:nonzero;stroke:none"
         d="m 388.64844,280.01953 c -21.98828,0 -39.8125,-18.875 -39.8125,-42.16016 0,-23.28125 17.82422,-42.15625 39.8125,-42.15625 21.98828,0 39.8164,18.875 39.8164,42.15625 0,23.28516 -17.82812,42.16016 -39.8164,42.16016 m 38.61718,-158.28515 v 82.66406 C 417.62891,191.53516 402.59766,183.25 385.69922,183.25 c -29.09375,0 -52.67578,24.51562 -52.67578,54.75781 0,30.24219 23.58203,54.76172 52.67578,54.76172 16.89844,0 31.92969,-8.28516 41.5664,-21.14844 v 18.40235 h 14.32813 V 121.73438 Z m 0,0"
         id="path12"
         inkscape:connector-curvature="0" />
      <path
         style="fill:#5e5c5e;fill-opacity:1;fill-rule:nonzero;stroke:none"
         d="M 299.78906,290.17187 H 284.91797 V 186.30078 h 14.87109 z m 0,0"
         id="path14"
         inkscape:connector-curvature="0" />
      <path
         style="fill:#eb1923;fill-opacity:1;fill-rule:nonzero;stroke:none"
         d="m 306.07031,146.53125 c 0,7.28125 -5.90625,13.1875 -13.1875,13.1875 -7.28515,0 -13.1914,-5.90625 -13.1914,-13.1875 0,-7.28516 5.90625,-13.19141 13.1914,-13.19141 7.28125,0 13.1875,5.90625 13.1875,13.19141"
         id="path16"
         inkscape:connector-curvature="0" />
      <path
         style="fill:#5e5c5e;fill-opacity:1;fill-rule:nonzero;stroke:none"
         d="m 236.49219,230.23828 h -71.34375 c -0.004,-0.20703 -0.0156,-0.41406 -0.0156,-0.625 0,-18.72656 15.98047,-33.91016 35.6875,-33.91016 19.71094,0 35.6875,15.1836 35.6875,33.91016 0,0.21094 -0.0117,0.41797 -0.0156,0.625 m 8,11.8125 h 6.96484 c 0.0898,-1.35156 0.14453,-2.71094 0.14453,-4.08594 0,-30.26562 -22.91406,-54.80468 -51.17969,-54.80468 -28.26562,0 -51.17968,24.53906 -51.17968,54.80468 0,30.26563 22.91406,54.80078 51.17968,54.80078 21.99219,0 38.39063,-7.79296 47.71875,-21.66406 l -10.94531,-8.7539 c -7.35937,10.77343 -19.46094,17.80468 -33.15234,17.80468 -21.11719,0 -38.46485,-16.72265 -40.44922,-38.10156 z m 0,0"
         id="path18"
         inkscape:connector-curvature="0" />
      <path
         style="fill:#5e5c5e;fill-opacity:1;fill-rule:nonzero;stroke:none"
         d="M 77.53125,295.75 C 55.175781,295.754 30.667969,284.20312 21.320313,271.19141 l 13.96875,-10.03516 c 7.03125,9.78516 33.6875,21.17578 52.015625,16.20703 11.199218,-3.03516 17.320312,-11.50391 18.714842,-25.88672 0.79297,-18.21875 -11.804686,-24.29687 -34.08203,-33.4414 -1.765625,-0.72266 -3.53125,-1.44922 -5.289062,-2.1875 C 57.734375,212.10547 46.421875,206.89453 38.011719,199.73828 28.175781,191.375 23.691406,181.57812 24.679688,170.62109 l 0.03906,-0.36328 c 2.539063,-18.95703 14.875,-33.90234 32.992188,-39.98047 21.480468,-7.20703 46.207034,-0.89843 63.000004,16.0586 L 108.49219,158.4375 C 96.277344,146.10156 78.492188,141.44922 63.183594,146.58594 c -6.988281,2.34375 -19.03125,8.80468 -21.390625,25.75781 -0.765625,9.78516 8.675781,18.0625 31.511719,27.64453 1.714843,0.72266 3.441406,1.42969 5.164062,2.13672 10.652344,4.37109 21.66797,8.89453 30.13672,16.04687 10.35547,8.75 15.26172,20.29688 14.58594,34.32422 l -0.0273,0.39063 C 121.14458,274.4375 110.00786,289.02734 91.804738,293.96484 87.277394,295.19141 82.453175,295.75 77.5313,295.75"
         id="path20"
         inkscape:connector-curvature="0" />
      <path
         style="fill:#5e5c5e;fill-opacity:1;fill-rule:nonzero;stroke:none"
         d="M 667.07812,310.83594 H 25.523438 v -2.86719 H 667.07812 Z m 0,0"
         id="path22"
         inkscape:connector-curvature="0" />
      <path
         style="fill:#5e5c5e;fill-opacity:1;fill-rule:nonzero;stroke:none"
         d="m 690.40625,186.85547 c 0,1.68359 -1.36719,3.05078 -3.05078,3.05078 -1.6836,0 -3.05078,-1.36719 -3.05078,-3.05078 v -27.02344 c 0,-1.68359 1.36718,-3.05078 3.05078,-3.05078 1.68359,0 3.05078,1.36719 3.05078,3.05078 z m -10.23438,0 c 0,1.68359 -1.36718,3.05078 -3.05078,3.05078 -1.6875,0 -3.05468,-1.36719 -3.05468,-3.05078 v -27.02344 c 0,-1.68359 1.36718,-3.05078 3.05468,-3.05078 1.6836,0 3.05078,1.36719 3.05078,3.05078 z m -10.27734,0 c 0,1.68359 -1.36328,3.05078 -3.05078,3.05078 -1.68359,0 -3.04688,-1.36719 -3.04688,-3.05078 v -27.02344 c 0,-1.68359 1.36329,-3.05078 3.04688,-3.05078 1.6875,0 3.05078,1.36719 3.05078,3.05078 z m -10.30469,0 c 0,1.68359 -1.36328,3.05078 -3.05078,3.05078 -1.68359,0 -3.05078,-1.36719 -3.05078,-3.05078 v -27.02344 c 0,-1.68359 1.36719,-3.05078 3.05078,-3.05078 1.6875,0 3.05078,1.36719 3.05078,3.05078 z m -10.16797,0 c 0,1.68359 -1.36328,3.05078 -3.05078,3.05078 -1.68359,0 -3.05078,-1.36719 -3.05078,-3.05078 v -27.02344 c 0,-1.68359 1.36719,-3.05078 3.05078,-3.05078 1.6875,0 3.05078,1.36719 3.05078,3.05078 z M 686.375,151.97266 V 120.61328 H 647.75 v 31.35938 h -12.64844 v 35.19921 l 18.60156,20.28907 13.35938,63.89062 v -0.14844 0.0156 l 13.42969,-64.23828 18.16406,-19.8086 h 0.36719 v -35.19921 z m 0,0"
         id="path24"
         inkscape:connector-curvature="0" />
      <path
         style="fill:#eb1923;fill-opacity:1;fill-rule:nonzero;stroke:none"
         d="m 676.15234,307.36328 c -0.10937,-0.49609 -0.59375,-0.80859 -1.08984,-0.70703 l -4.86719,1.04297 4.95703,-4.50781 c 0.375,-0.34375 0.40235,-0.92188 0.0625,-1.29688 -0.33984,-0.375 -0.91797,-0.40234 -1.29687,-0.0625 l -5.67188,5.16016 v -38.30078 h -2.50781 v 38.19921 l -5.92969,-5.30078 c -0.38281,-0.33984 -0.96093,-0.30468 -1.29687,0.0703 -0.33985,0.3789 -0.30469,0.96093 0.0742,1.29687 l 5.33203,4.76563 -4.82813,-0.98829 c -0.49609,-0.0976 -0.98437,0.21875 -1.08593,0.71485 -0.10157,0.49609 0.21875,0.98047 0.71484,1.08203 l 3.49219,0.71875 c 0.71093,0.48437 1.76172,1.22266 1.76172,1.22266 0,0 3.0039,0.39843 3.19531,0.35937 0.11719,-0.0234 1.00781,-0.54687 1.71875,-0.98047 l 6.55859,-1.39844 c 0.4961,-0.10937 0.8086,-0.59765 0.70703,-1.08984"
         id="path26"
         inkscape:connector-curvature="0" />
    </g>
    <rect
       style="fill:none;stroke:none;stroke-width:0.00270627;stroke-miterlimit:4;stroke-dasharray:none;stroke-dashoffset:0;stroke-opacity:1"
       id="rect37"
       width="38.722984"
       height="36.354866"
       x="-6.0163965"
       y="250.30139"
       inkscape:export-filename="C:\Users\Sebastian\Pictures\FusionLogo.png"
       inkscape:export-xdpi="471.58774"
       inkscape:export-ydpi="471.58774" />
    <rect
       style="fill:none;stroke:none;stroke-width:0.00270627;stroke-miterlimit:4;stroke-dasharray:none;stroke-dashoffset:0;stroke-opacity:1"
       id="rect39"
       width="80.581444"
       height="58.00972"
       x="-7.427361"
       y="248.08849"
       inkscape:export-filename="C:\Users\Sebastian\Pictures\FusionLogo.png"
       inkscape:export-xdpi="471.58774"
       inkscape:export-ydpi="471.58774" />
    <rect
       style="fill:none;stroke:none;stroke-width:0.00270627;stroke-miterlimit:4;stroke-dasharray:none;stroke-dashoffset:0;stroke-opacity:1"
       id="rect41"
       width="93.59362"
       height="61.487144"
       x="-10.719596"
       y="245.55942"
       inkscape:export-filename="C:\Users\Sebastian\Pictures\FusionLogo.png"
       inkscape:export-xdpi="471.58774"
       inkscape:export-ydpi="471.58774" />
  </g>
</svg>
